<?xml version="1.0" encoding="utf-8"?>
<!-- Generator: Adobe Illustrator 21.1.0, SVG Export Plug-In . SVG Version: 6.00 Build 0)  -->
<svg version="1.1" xmlns="http://www.w3.org/2000/svg" xmlns:xlink="http://www.w3.org/1999/xlink" x="0px" y="0px"
	 viewBox="0 0 3156.3 5005" style="enable-background:new 0 0 3156.3 5005;" xml:space="preserve">
<style type="text/css">
	.st0{display:none;}
	.st1{display:inline;}
	.st2{clip-path:url(#SVGID_2_);fill:#EDEDED;}
	.st3{clip-path:url(#SVGID_2_);fill:#7FEFD2;}
	
		.st4{clip-path:url(#SVGID_2_);fill:none;stroke:#FFFFFF;stroke-width:2;stroke-linecap:round;stroke-linejoin:round;stroke-miterlimit:10;}
	.st5{fill:none;stroke:#D6D6D6;stroke-width:4.2932;stroke-linecap:round;stroke-linejoin:round;stroke-miterlimit:10;}
	.st6{fill:none;stroke:#EAEAEA;stroke-width:4.2932;stroke-linecap:round;stroke-linejoin:round;stroke-miterlimit:10;}
	.st7{fill:none;stroke:#A3A3A3;stroke-width:4.2932;stroke-linecap:round;stroke-linejoin:round;stroke-miterlimit:10;}
</style>
<g id="BG" class="st0">
	<g class="st1">
		<defs>
			<rect id="SVGID_1_" x="2591" y="311" width="800" height="800"/>
		</defs>
		<clipPath id="SVGID_2_">
			<use xlink:href="#SVGID_1_"  style="overflow:visible;"/>
		</clipPath>
		<rect id="XMLID_1_" x="2591" y="311" class="st2" width="800" height="800"/>
		
			<rect id="XMLID_62_" x="3151.5" y="-115.9" transform="matrix(0.7071 -0.7071 0.7071 0.7071 708.7742 2457.3013)" class="st3" width="338.2" height="978"/>
		
			<rect id="XMLID_70_" x="2492.3" y="559.9" transform="matrix(0.7071 -0.7071 0.7071 0.7071 37.8072 2189.1057)" class="st3" width="338.2" height="978"/>
		<rect x="2591" y="311" class="st4" width="800" height="800"/>
	</g>
</g>
<g id="Layer_2">
	<line id="XMLID_389_" class="st5" x1="14.7" y1="1429.1" x2="52.6" y2="1429.1"/>
	<line id="XMLID_388_" class="st5" x1="-530.8" y1="1282.1" x2="213.6" y2="1282.1"/>
	<line id="XMLID_387_" class="st5" x1="-922.1" y1="1506.6" x2="-46.8" y2="1506.6"/>
	<line id="XMLID_366_" class="st6" x1="-55.4" y1="1253.1" x2="2.6" y2="1253.1"/>
	<path id="XMLID_362_" class="st7" d="M-256.7,1915.4h82.6c20.3,0,36.8-16.5,36.8-36.8c0-20.3-16.5-36.8-36.8-36.8
		c-5.3,0-10.2,1.1-14.8,3.1c-1.5-36-31.2-64.7-67.5-64.7c-31.4,0-57.7,21.4-65.4,50.3c-5-2-10.5-3.1-16.2-3.1c-24.3,0-44,19.7-44,44
		c0,24.3,19.7,44,44,44h36"/>
	<line id="XMLID_361_" class="st7" x1="-289.6" y1="1915.4" x2="-269.2" y2="1915.4"/>
	<g id="XMLID_349_">
		<path id="XMLID_354_" class="st5" d="M1934.4,1585.6c-3.9-0.9-7.9-1.4-12.1-1.4c-23.9,0-44,16.3-49.9,38.4
			c-3.8-1.5-8-2.4-12.3-2.4c-18.5,0-33.6,15-33.6,33.6c0,18.5,15,33.6,33.6,33.6h27.5"/>
		<path id="XMLID_353_" class="st5" d="M1966.1,1608.6c-5-8-12.2-14.6-20.6-18.9"/>
		<path id="XMLID_352_" class="st5" d="M2002.5,1637.3c-4.8-3.8-10.8-6.1-17.4-6.1c-4,0-7.8,0.9-11.3,2.4c-0.2-5.6-1.4-11-3.2-15.9"
			/>
		<path id="XMLID_351_" class="st5" d="M1922.1,1687.3h62.9c15.5,0,28.1-12.6,28.1-28.1"/>
		<line id="XMLID_350_" class="st5" x1="1897.1" y1="1687.3" x2="1912.7" y2="1687.3"/>
	</g>
	<g id="XMLID_335_">
		<line id="XMLID_337_" class="st5" x1="67.6" y1="1634.9" x2="53.8" y2="1648.7"/>
		<line id="XMLID_336_" class="st5" x1="67.6" y1="1648.7" x2="53.8" y2="1634.9"/>
	</g>
	<line id="XMLID_368_" class="st6" x1="2546.5" y1="1757.2" x2="2603.3" y2="1757.2"/>
	<circle id="XMLID_347_" class="st5" cx="2726.2" cy="1162.4" r="11.4"/>
	<circle id="XMLID_345_" class="st5" cx="2832" cy="1071.5" r="11.4"/>
	<circle id="XMLID_344_" class="st7" cx="2468.7" cy="1836.7" r="11.4"/>
	<circle id="XMLID_338_" class="st5" cx="3017.5" cy="1393.8" r="11.4"/>
	<g id="XMLID_332_">
		<line id="XMLID_334_" class="st5" x1="2875.1" y1="1357.3" x2="2861.3" y2="1371"/>
		<line id="XMLID_333_" class="st5" x1="2875.1" y1="1371" x2="2861.3" y2="1357.3"/>
	</g>
	<path id="XMLID_285_" class="st5" d="M2955.6,1130.1c3.8,8.1,12.1,13.7,21.6,13.7h48.5h31.1h37.1h37.5h29.8
		c20.1,0,36.4-16.3,36.4-36.4c0-20.1-16.3-36.4-36.4-36.4c-4.7,0-9.2,0.9-13.4,2.6c-6.3-24-28.1-41.6-54.1-41.6
		c-30.1,0-54.6,23.8-55.9,53.5c-3.7-1.6-7.9-2.6-12.2-2.6c-14.1,0-25.9,9.6-29.4,22.6c-4.4-5.8-11.3-9.6-19.1-9.6"/>
	<path id="XMLID_284_" class="st5" d="M2966,1098.7c-7.6,4-12.7,12-12.7,21.1"/>
	<circle id="XMLID_9_" class="st5" cx="171" cy="2205.9" r="11.4"/>
	<circle id="XMLID_8_" class="st5" cx="276.7" cy="2115.1" r="11.4"/>
	<circle id="XMLID_7_" class="st5" cx="118.9" cy="1836.7" r="11.4"/>
	<g id="XMLID_4_">
		<line id="XMLID_6_" class="st5" x1="319.8" y1="2400.8" x2="306" y2="2414.6"/>
		<line id="XMLID_5_" class="st5" x1="319.8" y1="2414.6" x2="306" y2="2400.8"/>
	</g>
	<path id="XMLID_2_" class="st5" d="M83.5-191.7c-7.6,4-12.7,12-12.7,21.1"/>
	<line id="XMLID_63_" class="st5" x1="3202.7" y1="3746.2" x2="3164.8" y2="3746.2"/>
	<line id="XMLID_61_" class="st5" x1="3748.2" y1="3599.2" x2="3003.8" y2="3599.2"/>
	<line id="XMLID_60_" class="st5" x1="4139.4" y1="3823.7" x2="3264.2" y2="3823.7"/>
	<circle id="XMLID_59_" class="st7" cx="2965.6" cy="3537.7" r="11.4"/>
	<line id="XMLID_58_" class="st6" x1="3272.8" y1="3570.2" x2="3214.7" y2="3570.2"/>
	<path id="XMLID_57_" class="st7" d="M3474.1,4232.5h-82.6c-20.3,0-36.8-16.5-36.8-36.8s16.5-36.8,36.8-36.8
		c5.3,0,10.2,1.1,14.8,3.1c1.5-36,31.2-64.7,67.5-64.7c31.4,0,57.7,21.4,65.4,50.3c5-2,10.5-3.1,16.2-3.1c24.3,0,44,19.7,44,44
		s-19.7,44-44,44h-36"/>
	<line id="XMLID_56_" class="st7" x1="3507" y1="4232.5" x2="3486.5" y2="4232.5"/>
	<g id="XMLID_50_">
		<path id="XMLID_55_" class="st5" d="M3044.5,3712.2c-4.2-1-8.6-1.5-13.1-1.5c-26,0-47.9,17.7-54.2,41.7c-4.2-1.6-8.7-2.6-13.4-2.6
			c-20.2,0-36.5,16.3-36.5,36.5c0,20.2,16.3,36.5,36.5,36.5h29.9"/>
		<path id="XMLID_54_" class="st5" d="M3078.9,3737.2c-5.4-8.7-13.2-15.9-22.5-20.5"/>
		<path id="XMLID_53_" class="st5" d="M3118.5,3768.4c-5.2-4.1-11.8-6.6-18.9-6.6c-4.4,0-8.5,0.9-12.2,2.6
			c-0.3-6.1-1.5-11.9-3.5-17.3"/>
		<path id="XMLID_52_" class="st5" d="M3031.1,3822.8h68.4c16.9,0,30.5-13.7,30.5-30.5"/>
		<line id="XMLID_51_" class="st5" x1="3003.9" y1="3822.8" x2="3020.8" y2="3822.8"/>
	</g>
	<g id="XMLID_44_">
		<path id="XMLID_49_" class="st5" d="M1274.2,3864.5c3.9-0.9,7.9-1.4,12.1-1.4c23.9,0,44,16.3,49.9,38.4c3.8-1.5,8-2.4,12.3-2.4
			c18.5,0,33.6,15,33.6,33.6c0,18.5-15,33.6-33.6,33.6H1321"/>
		<path id="XMLID_48_" class="st5" d="M1242.5,3887.4c5-8,12.2-14.6,20.6-18.9"/>
		<path id="XMLID_47_" class="st5" d="M1206.1,3916.1c4.8-3.8,10.8-6.1,17.4-6.1c4,0,7.8,0.9,11.3,2.4c0.2-5.6,1.4-11,3.2-15.9"/>
		<path id="XMLID_46_" class="st5" d="M1286.5,3966.2h-62.9c-15.5,0-28.1-12.6-28.1-28.1"/>
		<line id="XMLID_45_" class="st5" x1="1311.5" y1="3966.2" x2="1295.9" y2="3966.2"/>
	</g>
	<circle id="XMLID_43_" class="st6" cx="3014.8" cy="3350.3" r="11.4"/>
	<circle id="XMLID_42_" class="st6" cx="3015.7" cy="4059.3" r="11.4"/>
	<circle id="XMLID_41_" class="st6" cx="1483.4" cy="3938.1" r="11.4"/>
	<g id="XMLID_38_">
		<line id="XMLID_40_" class="st5" x1="3149.8" y1="3952.1" x2="3163.6" y2="3965.8"/>
		<line id="XMLID_39_" class="st5" x1="3149.8" y1="3965.8" x2="3163.6" y2="3952.1"/>
	</g>
	<line id="XMLID_37_" class="st6" x1="662.1" y1="4036" x2="605.3" y2="4036"/>
	<circle id="XMLID_35_" class="st6" cx="2921.1" cy="4175.3" r="11.4"/>
	<line id="XMLID_34_" class="st6" x1="2932.5" y1="4175.3" x2="3115" y2="4175.3"/>
	<circle id="XMLID_32_" class="st5" cx="482.4" cy="3441.2" r="11.4"/>
	<circle id="XMLID_31_" class="st5" cx="376.6" cy="3350.3" r="11.4"/>
	<circle id="XMLID_30_" class="st7" cx="739.9" cy="4115.5" r="11.4"/>
	<circle id="XMLID_29_" class="st5" cx="191.1" cy="3672.6" r="11.4"/>
	<g id="XMLID_26_">
		<line id="XMLID_28_" class="st5" x1="333.6" y1="3636.1" x2="347.3" y2="3649.8"/>
		<line id="XMLID_27_" class="st5" x1="333.6" y1="3649.8" x2="347.3" y2="3636.1"/>
	</g>
	<path id="XMLID_22_" class="st5" d="M253,3408.9c-3.8,8.1-12.1,13.7-21.6,13.7h-48.5h-31.1h-37.1H77.1H47.3
		c-20.1,0-36.4-16.3-36.4-36.4s16.3-36.4,36.4-36.4c4.7,0,9.2,0.9,13.4,2.6c6.3-24,28.1-41.6,54.1-41.6c30.1,0,54.6,23.8,55.9,53.5
		c3.7-1.6,7.9-2.6,12.2-2.6c14.1,0,25.9,9.6,29.4,22.6c4.4-5.8,11.3-9.6,19.1-9.6"/>
	<path id="XMLID_20_" class="st5" d="M242.6,3377.5c7.6,4,12.7,12,12.7,21.1"/>
	<path id="XMLID_11_" class="st5" d="M614.8,4935.1c-3.8,8.1-12.1,13.7-21.6,13.7h-48.5h-31.1h-37.1H439h-29.8
		c-20.1,0-36.4-16.3-36.4-36.4c0-20.1,16.3-36.4,36.4-36.4c4.7,0,9.2,0.9,13.4,2.6c6.3-24,28.1-41.6,54.1-41.6
		c30.1,0,54.6,23.8,55.9,53.5c3.7-1.6,7.9-2.6,12.2-2.6c14.1,0,25.9,9.6,29.4,22.6c4.4-5.8,11.3-9.6,19.1-9.6"/>
	<path id="XMLID_10_" class="st5" d="M3125.1,2087.1c7.6,4,12.7,12,12.7,21.1"/>
</g>
</svg>
