<?xml version="1.0" encoding="utf-8"?>
<!-- Generator: Adobe Illustrator 21.1.0, SVG Export Plug-In . SVG Version: 6.00 Build 0)  -->
<svg version="1.1" id="Capa_1" xmlns="http://www.w3.org/2000/svg" xmlns:xlink="http://www.w3.org/1999/xlink" x="0px" y="0px"
	 viewBox="0 0 827.5 108.7" style="enable-background:new 0 0 827.5 108.7;" xml:space="preserve">
<style type="text/css">
	.st0{fill:#F7B617;}
	.st1{fill:#2B2B2B;}
</style>
<path class="st0" d="M70.1,96.7c2,1.1,2,2.5,2,3.7v5.3c0,0.9-0.7,1.8-1.6,1.8c-0.5,0-0.9-0.4-1.2-0.4L2.8,72.2C1,71.3,0,70.3,0,68.8
	v-5.3c0-1.2,0.5-2.7,2.1-3.4L69.3,25c0.4-0.2,0.9-0.4,1.4-0.4c0.7,0,1.4,0.5,1.4,1.6v5.1c0,1.1-0.5,2.7-2.1,3.4L10.6,66L70.1,96.7z"
	/>
<path class="st0" d="M817,65.8l-59.6-31c-1.6-0.7-2.1-2.3-2.1-3.4v-5.1c0-1.1,0.7-1.6,1.4-1.6c0.5,0,0.9,0.2,1.4,0.4l67.2,35.1
	c1.6,0.7,2.1,2.1,2.1,3.4v5.3c0,1.4-0.9,2.5-2.8,3.4l-66.5,34.9c-0.5,0-0.7,0.4-1.2,0.4c-1.1,0-1.6-0.9-1.6-1.8v-5.3
	c0-1.2,0-2.7,1.9-3.7L817,65.8z"/>
<g>
	<g>
		<path class="st1" d="M108.2,67.8c0,10.4,1.6,18.1,4.9,23.1c3.3,5,8.2,7.5,14.8,7.5c4.6,0,8.5-1.3,11.6-3.8c3.1-2.5,5-6.4,5.7-11.6
			l13.2,0.9c-1,7.5-4.2,13.5-9.6,18c-5.4,4.5-12.2,6.7-20.5,6.7c-10.9,0-19.3-3.5-25-10.4c-5.8-6.9-8.6-17-8.6-30.3
			c0-13.2,2.9-23.2,8.7-30.1c5.8-6.9,14.1-10.4,24.9-10.4c8,0,14.6,2.1,19.9,6.2c5.3,4.1,8.6,9.9,9.9,17.1l-13.4,1
			c-0.7-4.3-2.4-7.8-5.1-10.3c-2.7-2.6-6.7-3.8-11.7-3.8c-6.9,0-11.9,2.3-15,6.9C109.7,49.3,108.2,57,108.2,67.8z"/>
		<path class="st1" d="M238.4,68.1c0,13.7-3,23.9-9,30.6c-6,6.7-14.8,10-26.2,10c-11.4,0-20-3.5-25.9-10.4c-5.8-7-8.7-17-8.7-30.2
			c0-27,11.7-40.5,35.1-40.5c12,0,20.7,3.3,26.4,9.9C235.6,44.1,238.4,54.3,238.4,68.1z M224.8,68.1c0-10.8-1.6-18.6-4.8-23.5
			c-3.2-4.9-8.6-7.3-16.2-7.3c-7.6,0-13.1,2.5-16.5,7.5c-3.4,5-5.1,12.8-5.1,23.4c0,10.3,1.7,18.1,5,23.2c3.3,5.2,8.6,7.8,15.8,7.8
			c7.8,0,13.4-2.5,16.7-7.5C223.1,86.6,224.8,78.7,224.8,68.1z"/>
		<path class="st1" d="M304,94.7c-2.4,5-5.6,8.6-9.6,10.8c-4,2.2-8.9,3.3-14.8,3.3c-9.9,0-17.1-3.3-21.8-10c-4.7-6.7-7-16.7-7-30.2
			c0-27.3,9.6-40.9,28.8-40.9c5.9,0,10.9,1.1,14.8,3.3c4,2.2,7.1,5.6,9.5,10.3h0.1l-0.1-8.7V0h13v91.2c0,8.1,0.1,13.5,0.4,16.1H305
			c-0.1-0.8-0.3-2.6-0.5-5.3c-0.2-2.8-0.3-5.2-0.3-7.2H304z M264.5,68.1c0,10.9,1.4,18.8,4.3,23.5c2.9,4.7,7.6,7.1,14.1,7.1
			c7.4,0,12.7-2.6,16-7.7c3.3-5.1,5-13,5-23.8c0-10.4-1.7-18-5-22.8c-3.3-4.8-8.6-7.2-15.9-7.2c-6.6,0-11.3,2.4-14.2,7.3
			C266,49.3,264.5,57.2,264.5,68.1z"/>
		<path class="st1" d="M347,70.9c0,9,1.9,15.9,5.6,20.7c3.7,4.9,9.1,7.3,16.3,7.3c5.6,0,10.2-1.1,13.6-3.4c3.4-2.3,5.7-5.1,6.9-8.6
			l11.4,3.3c-4.7,12.3-15.3,18.5-31.9,18.5c-11.6,0-20.4-3.4-26.4-10.3c-6-6.9-9.1-17.1-9.1-30.7c0-12.9,3-22.8,9.1-29.7
			c6-6.9,14.7-10.3,25.9-10.3c23,0,34.5,13.9,34.5,41.6v1.7H347z M389.3,60.9c-0.7-8.2-2.8-14.3-6.3-18c-3.5-3.8-8.5-5.7-15-5.7
			c-6.3,0-11.3,2.1-15,6.3c-3.7,4.2-5.7,10-6,17.4H389.3z"/>
		<path class="st1" d="M485.5,67.8c0,27.3-9.6,40.9-28.8,40.9c-5.9,0-10.9-1.1-14.8-3.2c-3.9-2.1-7.1-5.6-9.6-10.4h-0.1
			c0,1.5-0.1,3.8-0.3,6.8c-0.2,3.1-0.3,4.8-0.4,5.3h-12.6c0.3-2.6,0.4-8,0.4-16.1V0h13v30.6c0,3.1-0.1,6.8-0.3,11.1h0.3
			c2.4-5,5.6-8.6,9.6-10.8c4-2.2,8.9-3.3,14.8-3.3c9.9,0,17.1,3.3,21.8,10C483.1,44.2,485.5,54.3,485.5,67.8z M471.8,68.2
			c0-10.9-1.4-18.8-4.3-23.5c-2.9-4.7-7.6-7.1-14.1-7.1c-7.3,0-12.7,2.5-16,7.5c-3.4,5-5,13-5,23.9c0,10.3,1.6,17.8,4.9,22.7
			c3.3,4.9,8.6,7.3,16,7.3c6.6,0,11.3-2.4,14.2-7.3C470.3,87,471.8,79.1,471.8,68.2z"/>
		<path class="st1" d="M567.8,68.1c0,13.7-3,23.9-9,30.6c-6,6.7-14.8,10-26.2,10c-11.4,0-20-3.5-25.9-10.4c-5.8-7-8.7-17-8.7-30.2
			c0-27,11.7-40.5,35.1-40.5c12,0,20.7,3.3,26.4,9.9C565,44.1,567.8,54.3,567.8,68.1z M554.1,68.1c0-10.8-1.6-18.6-4.8-23.5
			c-3.2-4.9-8.6-7.3-16.2-7.3c-7.6,0-13.1,2.5-16.5,7.5c-3.4,5-5.1,12.8-5.1,23.4c0,10.3,1.7,18.1,5,23.2c3.3,5.2,8.6,7.8,15.8,7.8
			c7.8,0,13.4-2.5,16.7-7.5C552.5,86.6,554.1,78.7,554.1,68.1z"/>
		<path class="st1" d="M650.1,68.1c0,13.7-3,23.9-9,30.6c-6,6.7-14.8,10-26.2,10c-11.4,0-20-3.5-25.9-10.4c-5.8-7-8.7-17-8.7-30.2
			c0-27,11.7-40.5,35.1-40.5c12,0,20.7,3.3,26.4,9.9C647.3,44.1,650.1,54.3,650.1,68.1z M636.5,68.1c0-10.8-1.6-18.6-4.8-23.5
			c-3.2-4.9-8.6-7.3-16.2-7.3c-7.6,0-13.1,2.5-16.5,7.5c-3.4,5-5.1,12.8-5.1,23.4c0,10.3,1.7,18.1,5,23.2c3.3,5.2,8.6,7.8,15.8,7.8
			c7.8,0,13.4-2.5,16.7-7.5C634.8,86.6,636.5,78.7,636.5,68.1z"/>
		<path class="st1" d="M715.3,107.3l-26.5-35.7l-9.5,7.9v27.8h-13V0h13v67l34.3-38h15.3l-31.7,33.6l33.4,44.6H715.3z"/>
	</g>
</g>
</svg>
